<svg width="184" height="84" viewBox="0 0 184 84" fill="none" xmlns="http://www.w3.org/2000/svg">
<path d="M21.52 0.848C33.1253 0.848 42.2987 2.46933 49.04 5.712C55.8667 8.86933 61.0293 12.4107 64.528 16.336C67.344 19.5787 69.648 23.3333 71.44 27.6C73.232 31.7813 74.128 36.816 74.128 42.704C74.128 47.056 73.1467 51.6213 71.184 56.4C69.2213 61.0933 66.6613 64.8907 63.504 67.792C60.176 70.9493 57.0187 73.5093 54.032 75.472C51.1307 77.4347 47.1627 79.056 42.128 80.336C37.1787 81.5307 30.864 82.128 23.184 82.128C17.3813 82.128 12.1333 81.488 7.44 80.208C2.74667 78.8427 0.4 76.5813 0.4 73.424C0.4 72.144 0.954667 71.1627 2.064 70.48C3.25867 69.712 4.53867 69.328 5.904 69.328C6.672 69.328 7.184 69.3707 7.44 69.456C8.03733 63.824 8.336 57.8507 8.336 51.536C8.336 44.4533 8.16533 38.608 7.824 34C7.48267 29.3067 7.01333 24.656 6.416 20.048C6.33067 19.4507 6.11733 17.7867 5.776 15.056C5.52 12.3253 5.392 9.552 5.392 6.736C5.392 4.944 6.288 3.45066 8.08 2.256C9.872 0.975998 11.7067 0.335999 13.584 0.335999C14.6933 0.335999 16.1867 0.421331 18.064 0.591995C19.6 0.762665 20.752 0.848 21.52 0.848ZM19.856 70.096C21.904 70.4373 24.592 70.608 27.92 70.608C33.552 70.608 38.8853 69.456 43.92 67.152C48.9547 64.7627 53.008 61.4773 56.08 57.296C59.152 53.0293 60.688 48.1227 60.688 42.576C60.688 36.7733 59.664 31.824 57.616 27.728C55.568 23.632 52.4107 20.2613 48.144 17.616C44.9867 15.6533 41.104 14.2453 36.496 13.392C31.888 12.4533 26.3413 11.984 19.856 11.984C19.856 14.032 19.984 16.592 20.24 19.664C20.24 20.688 20.3253 22.48 20.496 25.04C21.008 34.9387 21.264 42.9173 21.264 48.976C21.264 57.7653 20.7947 64.8053 19.856 70.096ZM97.95 76.5C97.95 78.1667 97.2833 79.7333 95.95 81.2C94.6167 82.6 93.15 83.3 91.55 83.3C89.6833 83.3 87.9833 82.8 86.45 81.8C84.9167 80.7333 84.15 79.4 84.15 77.8C84.15 75.2667 84.6167 73.4 85.55 72.2C86.55 71 88.0167 70.4 89.95 70.4C92.2167 70.4 94.1167 70.9667 95.65 72.1C97.1833 73.1667 97.95 74.6333 97.95 76.5ZM130.879 0.848C142.485 0.848 151.658 2.46933 158.399 5.712C165.226 8.86933 170.389 12.4107 173.887 16.336C176.703 19.5787 179.007 23.3333 180.799 27.6C182.591 31.7813 183.487 36.816 183.487 42.704C183.487 47.056 182.506 51.6213 180.543 56.4C178.581 61.0933 176.021 64.8907 172.863 67.792C169.535 70.9493 166.378 73.5093 163.391 75.472C160.49 77.4347 156.522 79.056 151.487 80.336C146.538 81.5307 140.223 82.128 132.543 82.128C126.741 82.128 121.493 81.488 116.799 80.208C112.106 78.8427 109.759 76.5813 109.759 73.424C109.759 72.144 110.314 71.1627 111.423 70.48C112.618 69.712 113.898 69.328 115.263 69.328C116.031 69.328 116.543 69.3707 116.799 69.456C117.397 63.824 117.695 57.8507 117.695 51.536C117.695 44.4533 117.525 38.608 117.183 34C116.842 29.3067 116.373 24.656 115.775 20.048C115.69 19.4507 115.477 17.7867 115.135 15.056C114.879 12.3253 114.751 9.552 114.751 6.736C114.751 4.944 115.647 3.45066 117.439 2.256C119.231 0.975998 121.066 0.335999 122.943 0.335999C124.053 0.335999 125.546 0.421331 127.423 0.591995C128.959 0.762665 130.111 0.848 130.879 0.848ZM129.215 70.096C131.263 70.4373 133.951 70.608 137.279 70.608C142.911 70.608 148.245 69.456 153.279 67.152C158.314 64.7627 162.367 61.4773 165.439 57.296C168.511 53.0293 170.047 48.1227 170.047 42.576C170.047 36.7733 169.023 31.824 166.975 27.728C164.927 23.632 161.77 20.2613 157.503 17.616C154.346 15.6533 150.463 14.2453 145.855 13.392C141.247 12.4533 135.701 11.984 129.215 11.984C129.215 14.032 129.343 16.592 129.599 19.664C129.599 20.688 129.685 22.48 129.855 25.04C130.367 34.9387 130.623 42.9173 130.623 48.976C130.623 57.7653 130.154 64.8053 129.215 70.096Z" fill="white"/>
</svg>
